<svg xmlns="http://www.w3.org/2000/svg" xmlns:xlink="http://www.w3.org/1999/xlink" xmlns:svgjs="http://svgjs.dev/svgjs" version="1.1" viewBox="0 0 1422 800">
	<g stroke-width="2.5" stroke="#f0ffff" fill="none" stroke-linecap="round">
		<path d="M 0 540 Q 355.5 5 711 400 Q 1066.5 795 1422 540"/>
		<path d="M 0 520 Q 355.5 5 711 400 Q 1066.5 795 1422 520"/>
		<path d="M 0 500 Q 355.5 5 711 400 Q 1066.5 795 1422 500"/>
		<path d="M 0 480 Q 355.5 5 711 400 Q 1066.5 795 1422 480"/>
		<path d="M 0 460 Q 355.5 5 711 400 Q 1066.5 795 1422 460"/>
		<path d="M 0 440 Q 355.5 5 711 400 Q 1066.5 795 1422 440"/>
		<path d="M 0 420 Q 355.5 5 711 400 Q 1066.5 795 1422 420"/>
		<path d="M 0 400 Q 355.5 5 711 400 Q 1066.5 795 1422 400"/>
		<path d="M 0 380 Q 355.5 5 711 400 Q 1066.5 795 1422 380"/>
		<path d="M 0 360 Q 355.5 5 711 400 Q 1066.5 795 1422 360"/>
		<path d="M 0 340 Q 355.5 5 711 400 Q 1066.5 795 1422 340"/>
		<path d="M 0 320 Q 355.5 5 711 400 Q 1066.5 795 1422 320"/>
		<path d="M 0 300 Q 355.5 5 711 400 Q 1066.5 795 1422 300"/>
		<path d="M 0 280 Q 355.5 5 711 400 Q 1066.5 795 1422 280"/>
		<path d="M 0 260 Q 355.5 5 711 400 Q 1066.5 795 1422 260"/>
		<path d="M 0 240 Q 355.5 5 711 400 Q 1066.5 795 1422 240"/>
		<path d="M 0 220 Q 355.5 5 711 400 Q 1066.5 795 1422 220"/>
		<path d="M 0 200 Q 355.5 5 711 400 Q 1066.5 795 1422 200"/>
		<path d="M 0 180 Q 355.5 5 711 400 Q 1066.5 795 1422 180"/>
		<path d="M 0 160 Q 355.5 5 711 400 Q 1066.5 795 1422 160"/>
		<path d="M 0 140 Q 355.5 5 711 400 Q 1066.5 795 1422 140"/>
		<path d="M 0 120 Q 355.5 5 711 400 Q 1066.5 795 1422 120"/>
		<path d="M 0 100 Q 355.5 5 711 400 Q 1066.5 795 1422 100"/>
		<path d="M 0 80 Q 355.5 5 711 400 Q 1066.5 795 1422 80"/>
		<path d="M 0 60 Q 355.5 5 711 400 Q 1066.5 795 1422 60"/>
		<path d="M 0 40 Q 355.5 5 711 400 Q 1066.5 795 1422 40"/>
	</g>
</svg>