<svg id="visual" viewBox="0 0 1920 1080" width="1920" height="1080" xmlns="http://www.w3.org/2000/svg" xmlns:xlink="http://www.w3.org/1999/xlink" version="1.1"><rect width="1920" height="1080" fill="#222323"></rect><g><g transform="translate(641 508)"><path d="M0 -52.3L45.3 -26.1L45.3 26.1L0 52.3L-45.3 26.1L-45.3 -26.1Z" fill="none" stroke="#c4d0d0" stroke-width="2"></path></g><g transform="translate(183 646)"><path d="M0 -31L26.8 -15.5L26.8 15.5L0 31L-26.8 15.5L-26.8 -15.5Z" fill="none" stroke="#c4d0d0" stroke-width="2"></path></g><g transform="translate(700 160)"><path d="M0 -49L42.4 -24.5L42.4 24.5L0 49L-42.4 24.5L-42.4 -24.5Z" fill="none" stroke="#c4d0d0" stroke-width="2"></path></g><g transform="translate(1523 772)"><path d="M0 -46L39.8 -23L39.8 23L0 46L-39.8 23L-39.8 -23Z" fill="none" stroke="#c4d0d0" stroke-width="2"></path></g><g transform="translate(1360 797)"><path d="M0 -31L26.8 -15.5L26.8 15.5L0 31L-26.8 15.5L-26.8 -15.5Z" fill="none" stroke="#c4d0d0" stroke-width="2"></path></g><g transform="translate(1765 125)"><path d="M0 -43L37.2 -21.5L37.2 21.5L0 43L-37.2 21.5L-37.2 -21.5Z" fill="none" stroke="#c4d0d0" stroke-width="2"></path></g><g transform="translate(1705 533)"><path d="M0 -44L38.1 -22L38.1 22L0 44L-38.1 22L-38.1 -22Z" fill="none" stroke="#c4d0d0" stroke-width="2"></path></g><g transform="translate(892 199)"><path d="M0 -50L43.3 -25L43.3 25L0 50L-43.3 25L-43.3 -25Z" fill="none" stroke="#c4d0d0" stroke-width="2"></path></g><g transform="translate(382 916)"><path d="M0 -30L26 -15L26 15L0 30L-26 15L-26 -15Z" fill="none" stroke="#c4d0d0" stroke-width="2"></path></g><g transform="translate(1199 595)"><path d="M0 -28L24.2 -14L24.2 14L0 28L-24.2 14L-24.2 -14Z" fill="none" stroke="#c4d0d0" stroke-width="2"></path></g><g transform="translate(869 21)"><path d="M0 -39L33.8 -19.5L33.8 19.5L0 39L-33.8 19.5L-33.8 -19.5Z" fill="none" stroke="#c4d0d0" stroke-width="2"></path></g><g transform="translate(674 756)"><path d="M0 -42L36.4 -21L36.4 21L0 42L-36.4 21L-36.4 -21Z" fill="none" stroke="#c4d0d0" stroke-width="2"></path></g><g transform="translate(1142 688)"><path d="M0 -36L31.2 -18L31.2 18L0 36L-31.2 18L-31.2 -18Z" fill="none" stroke="#c4d0d0" stroke-width="2"></path></g><g transform="translate(1474 1023)"><path d="M0 -51L44.2 -25.5L44.2 25.5L0 51L-44.2 25.5L-44.2 -25.5Z" fill="none" stroke="#c4d0d0" stroke-width="2"></path></g><g transform="translate(1 49)"><path d="M0 -36L31.2 -18L31.2 18L0 36L-31.2 18L-31.2 -18Z" fill="none" stroke="#c4d0d0" stroke-width="2"></path></g><g transform="translate(561 944)"><path d="M0 -32L27.7 -16L27.7 16L0 32L-27.7 16L-27.7 -16Z" fill="none" stroke="#c4d0d0" stroke-width="2"></path></g><g transform="translate(13 805)"><path d="M0 -26L22.5 -13L22.5 13L0 26L-22.5 13L-22.5 -13Z" fill="none" stroke="#c4d0d0" stroke-width="2"></path></g><g transform="translate(1493 333)"><path d="M0 -51L44.2 -25.5L44.2 25.5L0 51L-44.2 25.5L-44.2 -25.5Z" fill="none" stroke="#c4d0d0" stroke-width="2"></path></g><g transform="translate(579 17)"><path d="M0 -39L33.8 -19.5L33.8 19.5L0 39L-33.8 19.5L-33.8 -19.5Z" fill="none" stroke="#c4d0d0" stroke-width="2"></path></g><g transform="translate(1091 303)"><path d="M0 -50L43.3 -25L43.3 25L0 50L-43.3 25L-43.3 -25Z" fill="none" stroke="#c4d0d0" stroke-width="2"></path></g><g transform="translate(1725 780)"><path d="M0 -34L29.4 -17L29.4 17L0 34L-29.4 17L-29.4 -17Z" fill="none" stroke="#c4d0d0" stroke-width="2"></path></g><g transform="translate(592 153)"><path d="M0 -29L25.1 -14.5L25.1 14.5L0 29L-25.1 14.5L-25.1 -14.5Z" fill="none" stroke="#c4d0d0" stroke-width="2"></path></g><g transform="translate(1126 444)"><path d="M0 -37L32 -18.5L32 18.5L0 37L-32 18.5L-32 -18.5Z" fill="none" stroke="#c4d0d0" stroke-width="2"></path></g><g transform="translate(482 243)"><path d="M0 -49L42.4 -24.5L42.4 24.5L0 49L-42.4 24.5L-42.4 -24.5Z" fill="none" stroke="#c4d0d0" stroke-width="2"></path></g><g transform="translate(379 680)"><path d="M0 -46L39.8 -23L39.8 23L0 46L-39.8 23L-39.8 -23Z" fill="none" stroke="#c4d0d0" stroke-width="2"></path></g><g transform="translate(1536 75)"><path d="M0 -37L32 -18.5L32 18.5L0 37L-32 18.5L-32 -18.5Z" fill="none" stroke="#c4d0d0" stroke-width="2"></path></g><g transform="translate(1424 538)"><path d="M0 -49L42.4 -24.5L42.4 24.5L0 49L-42.4 24.5L-42.4 -24.5Z" fill="none" stroke="#c4d0d0" stroke-width="2"></path></g><g transform="translate(1262 32)"><path d="M0 -41L35.5 -20.5L35.5 20.5L0 41L-35.5 20.5L-35.5 -20.5Z" fill="none" stroke="#c4d0d0" stroke-width="2"></path></g><g transform="translate(338 85)"><path d="M0 -51L44.2 -25.5L44.2 25.5L0 51L-44.2 25.5L-44.2 -25.5Z" fill="none" stroke="#c4d0d0" stroke-width="2"></path></g><g transform="translate(1573 640)"><path d="M0 -28L24.2 -14L24.2 14L0 28L-24.2 14L-24.2 -14Z" fill="none" stroke="#c4d0d0" stroke-width="2"></path></g><g transform="translate(495 1043)"><path d="M0 -32L27.7 -16L27.7 16L0 32L-27.7 16L-27.7 -16Z" fill="none" stroke="#c4d0d0" stroke-width="2"></path></g><g transform="translate(711 1057)"><path d="M0 -28L24.2 -14L24.2 14L0 28L-24.2 14L-24.2 -14Z" fill="none" stroke="#c4d0d0" stroke-width="2"></path></g><g transform="translate(586 601)"><path d="M0 -32L27.7 -16L27.7 16L0 32L-27.7 16L-27.7 -16Z" fill="none" stroke="#c4d0d0" stroke-width="2"></path></g><g transform="translate(99 956)"><path d="M0 -35L30.3 -17.5L30.3 17.5L0 35L-30.3 17.5L-30.3 -17.5Z" fill="none" stroke="#c4d0d0" stroke-width="2"></path></g><g transform="translate(1779 293)"><path d="M0 -47L40.7 -23.5L40.7 23.5L0 47L-40.7 23.5L-40.7 -23.5Z" fill="none" stroke="#c4d0d0" stroke-width="2"></path></g><g transform="translate(1111 981)"><path d="M0 -42L36.4 -21L36.4 21L0 42L-36.4 21L-36.4 -21Z" fill="none" stroke="#c4d0d0" stroke-width="2"></path></g><g transform="translate(930 796)"><path d="M0 -31L26.8 -15.5L26.8 15.5L0 31L-26.8 15.5L-26.8 -15.5Z" fill="none" stroke="#c4d0d0" stroke-width="2"></path></g><g transform="translate(31 629)"><path d="M0 -32L27.7 -16L27.7 16L0 32L-27.7 16L-27.7 -16Z" fill="none" stroke="#c4d0d0" stroke-width="2"></path></g><g transform="translate(1290 943)"><path d="M0 -45L39 -22.5L39 22.5L0 45L-39 22.5L-39 -22.5Z" fill="none" stroke="#c4d0d0" stroke-width="2"></path></g><g transform="translate(1853 388)"><path d="M0 -29L25.1 -14.5L25.1 14.5L0 29L-25.1 14.5L-25.1 -14.5Z" fill="none" stroke="#c4d0d0" stroke-width="2"></path></g><g transform="translate(1408 651)"><path d="M0 -44L38.1 -22L38.1 22L0 44L-38.1 22L-38.1 -22Z" fill="none" stroke="#c4d0d0" stroke-width="2"></path></g><g transform="translate(247 749)"><path d="M0 -30L26 -15L26 15L0 30L-26 15L-26 -15Z" fill="none" stroke="#c4d0d0" stroke-width="2"></path></g><g transform="translate(537 711)"><path d="M0 -51L44.2 -25.5L44.2 25.5L0 51L-44.2 25.5L-44.2 -25.5Z" fill="none" stroke="#c4d0d0" stroke-width="2"></path></g><g transform="translate(830 467)"><path d="M0 -29L25.1 -14.5L25.1 14.5L0 29L-25.1 14.5L-25.1 -14.5Z" fill="none" stroke="#c4d0d0" stroke-width="2"></path></g><g transform="translate(1671 45)"><path d="M0 -32L27.7 -16L27.7 16L0 32L-27.7 16L-27.7 -16Z" fill="none" stroke="#c4d0d0" stroke-width="2"></path></g><g transform="translate(98 221)"><path d="M0 -51L44.2 -25.5L44.2 25.5L0 51L-44.2 25.5L-44.2 -25.5Z" fill="none" stroke="#c4d0d0" stroke-width="2"></path></g><g transform="translate(1247 250)"><path d="M0 -45L39 -22.5L39 22.5L0 45L-39 22.5L-39 -22.5Z" fill="none" stroke="#c4d0d0" stroke-width="2"></path></g><g transform="translate(1434 125)"><path d="M0 -42L36.4 -21L36.4 21L0 42L-36.4 21L-36.4 -21Z" fill="none" stroke="#c4d0d0" stroke-width="2"></path></g><g transform="translate(1402 236)"><path d="M0 -45L39 -22.5L39 22.5L0 45L-39 22.5L-39 -22.5Z" fill="none" stroke="#c4d0d0" stroke-width="2"></path></g><g transform="translate(1874 3)"><path d="M0 -42L36.4 -21L36.4 21L0 42L-36.4 21L-36.4 -21Z" fill="none" stroke="#c4d0d0" stroke-width="2"></path></g><g transform="translate(1445 864)"><path d="M0 -35L30.3 -17.5L30.3 17.5L0 35L-30.3 17.5L-30.3 -17.5Z" fill="none" stroke="#c4d0d0" stroke-width="2"></path></g><g transform="translate(1844 828)"><path d="M0 -40L34.6 -20L34.6 20L0 40L-34.6 20L-34.6 -20Z" fill="none" stroke="#c4d0d0" stroke-width="2"></path></g><g transform="translate(1662 157)"><path d="M0 -35L30.3 -17.5L30.3 17.5L0 35L-30.3 17.5L-30.3 -17.5Z" fill="none" stroke="#c4d0d0" stroke-width="2"></path></g><g transform="translate(123 81)"><path d="M0 -38L32.9 -19L32.9 19L0 38L-32.9 19L-32.9 -19Z" fill="none" stroke="#c4d0d0" stroke-width="2"></path></g><g transform="translate(787 87)"><path d="M0 -41L35.5 -20.5L35.5 20.5L0 41L-35.5 20.5L-35.5 -20.5Z" fill="none" stroke="#c4d0d0" stroke-width="2"></path></g><g transform="translate(1083 587)"><path d="M0 -40L34.6 -20L34.6 20L0 40L-34.6 20L-34.6 -20Z" fill="none" stroke="#c4d0d0" stroke-width="2"></path></g><g transform="translate(683 395)"><path d="M0 -46L39.8 -23L39.8 23L0 46L-39.8 23L-39.8 -23Z" fill="none" stroke="#c4d0d0" stroke-width="2"></path></g><g transform="translate(979 624)"><path d="M0 -41L35.5 -20.5L35.5 20.5L0 41L-35.5 20.5L-35.5 -20.5Z" fill="none" stroke="#c4d0d0" stroke-width="2"></path></g><g transform="translate(206 883)"><path d="M0 -50L43.3 -25L43.3 25L0 50L-43.3 25L-43.3 -25Z" fill="none" stroke="#c4d0d0" stroke-width="2"></path></g><g transform="translate(206 994)"><path d="M0 -40L34.6 -20L34.6 20L0 40L-34.6 20L-34.6 -20Z" fill="none" stroke="#c4d0d0" stroke-width="2"></path></g><g transform="translate(1907 266)"><path d="M0 -37L32 -18.5L32 18.5L0 37L-32 18.5L-32 -18.5Z" fill="none" stroke="#c4d0d0" stroke-width="2"></path></g><g transform="translate(763 951)"><path d="M0 -51L44.2 -25.5L44.2 25.5L0 51L-44.2 25.5L-44.2 -25.5Z" fill="none" stroke="#c4d0d0" stroke-width="2"></path></g><g transform="translate(1870 127)"><path d="M0 -37L32 -18.5L32 18.5L0 37L-32 18.5L-32 -18.5Z" fill="none" stroke="#c4d0d0" stroke-width="2"></path></g><g transform="translate(1358 413)"><path d="M0 -36L31.2 -18L31.2 18L0 36L-31.2 18L-31.2 -18Z" fill="none" stroke="#c4d0d0" stroke-width="2"></path></g><g transform="translate(1671 928)"><path d="M0 -31L26.8 -15.5L26.8 15.5L0 31L-26.8 15.5L-26.8 -15.5Z" fill="none" stroke="#c4d0d0" stroke-width="2"></path></g><g transform="translate(467 93)"><path d="M0 -46L39.8 -23L39.8 23L0 46L-39.8 23L-39.8 -23Z" fill="none" stroke="#c4d0d0" stroke-width="2"></path></g><g transform="translate(773 236)"><path d="M0 -34L29.4 -17L29.4 17L0 34L-29.4 17L-29.4 -17Z" fill="none" stroke="#c4d0d0" stroke-width="2"></path></g><g transform="translate(1097 133)"><path d="M0 -36L31.2 -18L31.2 18L0 36L-31.2 18L-31.2 -18Z" fill="none" stroke="#c4d0d0" stroke-width="2"></path></g><g transform="translate(274 264)"><path d="M0 -46L39.8 -23L39.8 23L0 46L-39.8 23L-39.8 -23Z" fill="none" stroke="#c4d0d0" stroke-width="2"></path></g><g transform="translate(1274 707)"><path d="M0 -34L29.4 -17L29.4 17L0 34L-29.4 17L-29.4 -17Z" fill="none" stroke="#c4d0d0" stroke-width="2"></path></g><g transform="translate(772 638)"><path d="M0 -31L26.8 -15.5L26.8 15.5L0 31L-26.8 15.5L-26.8 -15.5Z" fill="none" stroke="#c4d0d0" stroke-width="2"></path></g><g transform="translate(213 391)"><path d="M0 -43L37.2 -21.5L37.2 21.5L0 43L-37.2 21.5L-37.2 -21.5Z" fill="none" stroke="#c4d0d0" stroke-width="2"></path></g><g transform="translate(43 465)"><path d="M0 -43L37.2 -21.5L37.2 21.5L0 43L-37.2 21.5L-37.2 -21.5Z" fill="none" stroke="#c4d0d0" stroke-width="2"></path></g><g transform="translate(776 811)"><path d="M0 -29L25.1 -14.5L25.1 14.5L0 29L-25.1 14.5L-25.1 -14.5Z" fill="none" stroke="#c4d0d0" stroke-width="2"></path></g><g transform="translate(461 348)"><path d="M0 -35L30.3 -17.5L30.3 17.5L0 35L-30.3 17.5L-30.3 -17.5Z" fill="none" stroke="#c4d0d0" stroke-width="2"></path></g><g transform="translate(999 50)"><path d="M0 -32L27.7 -16L27.7 16L0 32L-27.7 16L-27.7 -16Z" fill="none" stroke="#c4d0d0" stroke-width="2"></path></g><g transform="translate(1868 702)"><path d="M0 -35L30.3 -17.5L30.3 17.5L0 35L-30.3 17.5L-30.3 -17.5Z" fill="none" stroke="#c4d0d0" stroke-width="2"></path></g><g transform="translate(990 331)"><path d="M0 -32L27.7 -16L27.7 16L0 32L-27.7 16L-27.7 -16Z" fill="none" stroke="#c4d0d0" stroke-width="2"></path></g><g transform="translate(532 433)"><path d="M0 -44L38.1 -22L38.1 22L0 44L-38.1 22L-38.1 -22Z" fill="none" stroke="#c4d0d0" stroke-width="2"></path></g><g transform="translate(1889 501)"><path d="M0 -26L22.5 -13L22.5 13L0 26L-22.5 13L-22.5 -13Z" fill="none" stroke="#c4d0d0" stroke-width="2"></path></g><g transform="translate(1207 803)"><path d="M0 -49L42.4 -24.5L42.4 24.5L0 49L-42.4 24.5L-42.4 -24.5Z" fill="none" stroke="#c4d0d0" stroke-width="2"></path></g><g transform="translate(1609 489)"><path d="M0 -30L26 -15L26 15L0 30L-26 15L-26 -15Z" fill="none" stroke="#c4d0d0" stroke-width="2"></path></g><g transform="translate(879 593)"><path d="M0 -32L27.7 -16L27.7 16L0 32L-27.7 16L-27.7 -16Z" fill="none" stroke="#c4d0d0" stroke-width="2"></path></g><g transform="translate(1846 1008)"><path d="M0 -37L32 -18.5L32 18.5L0 37L-32 18.5L-32 -18.5Z" fill="none" stroke="#c4d0d0" stroke-width="2"></path></g><g transform="translate(15 331)"><path d="M0 -27L23.4 -13.5L23.4 13.5L0 27L-23.4 13.5L-23.4 -13.5Z" fill="none" stroke="#c4d0d0" stroke-width="2"></path></g><g transform="translate(1057 880)"><path d="M0 -35L30.3 -17.5L30.3 17.5L0 35L-30.3 17.5L-30.3 -17.5Z" fill="none" stroke="#c4d0d0" stroke-width="2"></path></g><g transform="translate(1626 368)"><path d="M0 -31L26.8 -15.5L26.8 15.5L0 31L-26.8 15.5L-26.8 -15.5Z" fill="none" stroke="#c4d0d0" stroke-width="2"></path></g><g transform="translate(1316 150)"><path d="M0 -27L23.4 -13.5L23.4 13.5L0 27L-23.4 13.5L-23.4 -13.5Z" fill="none" stroke="#c4d0d0" stroke-width="2"></path></g><g transform="translate(855 331)"><path d="M0 -30L26 -15L26 15L0 30L-26 15L-26 -15Z" fill="none" stroke="#c4d0d0" stroke-width="2"></path></g><g transform="translate(329 432)"><path d="M0 -36L31.2 -18L31.2 18L0 36L-31.2 18L-31.2 -18Z" fill="none" stroke="#c4d0d0" stroke-width="2"></path></g><g transform="translate(208 4)"><path d="M0 -29L25.1 -14.5L25.1 14.5L0 29L-25.1 14.5L-25.1 -14.5Z" fill="none" stroke="#c4d0d0" stroke-width="2"></path></g><g transform="translate(1650 264)"><path d="M0 -31L26.8 -15.5L26.8 15.5L0 31L-26.8 15.5L-26.8 -15.5Z" fill="none" stroke="#c4d0d0" stroke-width="2"></path></g><g transform="translate(1002 1018)"><path d="M0 -32L27.7 -16L27.7 16L0 32L-27.7 16L-27.7 -16Z" fill="none" stroke="#c4d0d0" stroke-width="2"></path></g><g transform="translate(896 963)"><path d="M0 -49L42.4 -24.5L42.4 24.5L0 49L-42.4 24.5L-42.4 -24.5Z" fill="none" stroke="#c4d0d0" stroke-width="2"></path></g><g transform="translate(211 500)"><path d="M0 -42L36.4 -21L36.4 21L0 42L-36.4 21L-36.4 -21Z" fill="none" stroke="#c4d0d0" stroke-width="2"></path></g><g transform="translate(467 819)"><path d="M0 -49L42.4 -24.5L42.4 24.5L0 49L-42.4 24.5L-42.4 -24.5Z" fill="none" stroke="#c4d0d0" stroke-width="2"></path></g><g transform="translate(1157 6)"><path d="M0 -51L44.2 -25.5L44.2 25.5L0 51L-44.2 25.5L-44.2 -25.5Z" fill="none" stroke="#c4d0d0" stroke-width="2"></path></g><g transform="translate(344 1034)"><path d="M0 -32L27.7 -16L27.7 16L0 32L-27.7 16L-27.7 -16Z" fill="none" stroke="#c4d0d0" stroke-width="2"></path></g><g transform="translate(1271 510)"><path d="M0 -37L32 -18.5L32 18.5L0 37L-32 18.5L-32 -18.5Z" fill="none" stroke="#c4d0d0" stroke-width="2"></path></g><g transform="translate(945 495)"><path d="M0 -31L26.8 -15.5L26.8 15.5L0 31L-26.8 15.5L-26.8 -15.5Z" fill="none" stroke="#c4d0d0" stroke-width="2"></path></g><g transform="translate(1366 16)"><path d="M0 -48L41.6 -24L41.6 24L0 48L-41.6 24L-41.6 -24Z" fill="none" stroke="#c4d0d0" stroke-width="2"></path></g><g transform="translate(1611 1022)"><path d="M0 -48L41.6 -24L41.6 24L0 48L-41.6 24L-41.6 -24Z" fill="none" stroke="#c4d0d0" stroke-width="2"></path></g><g transform="translate(1214 365)"><path d="M0 -30L26 -15L26 15L0 30L-26 15L-26 -15Z" fill="none" stroke="#c4d0d0" stroke-width="2"></path></g><g transform="translate(1226 1045)"><path d="M0 -41L35.5 -20.5L35.5 20.5L0 41L-35.5 20.5L-35.5 -20.5Z" fill="none" stroke="#c4d0d0" stroke-width="2"></path></g><g transform="translate(575 317)"><path d="M0 -28L24.2 -14L24.2 14L0 28L-24.2 14L-24.2 -14Z" fill="none" stroke="#c4d0d0" stroke-width="2"></path></g><g transform="translate(1025 724)"><path d="M0 -27L23.4 -13.5L23.4 13.5L0 27L-23.4 13.5L-23.4 -13.5Z" fill="none" stroke="#c4d0d0" stroke-width="2"></path></g></g></svg>