<svg id="visual" viewBox="0 0 1080 500" width="1080" height="500" xmlns="http://www.w3.org/2000/svg" xmlns:xlink="http://www.w3.org/1999/xlink" version="1.1"><rect x="0" y="0" width="1080" height="500" fill="#f0ffff"></rect><path d="M0 254L90 254L90 308L180 308L180 303L270 303L270 306L360 306L360 322L450 322L450 257L540 257L540 292L630 292L630 245L720 245L720 328L810 328L810 289L900 289L900 299L990 299L990 322L1080 322L1080 320L1080 501L1080 501L990 501L990 501L900 501L900 501L810 501L810 501L720 501L720 501L630 501L630 501L540 501L540 501L450 501L450 501L360 501L360 501L270 501L270 501L180 501L180 501L90 501L90 501L0 501Z" fill="#00ff9b"></path><path d="M0 332L90 332L90 376L180 376L180 344L270 344L270 300L360 300L360 374L450 374L450 366L540 366L540 337L630 337L630 352L720 352L720 321L810 321L810 320L900 320L900 290L990 290L990 363L1080 363L1080 324L1080 501L1080 501L990 501L990 501L900 501L900 501L810 501L810 501L720 501L720 501L630 501L630 501L540 501L540 501L450 501L450 501L360 501L360 501L270 501L270 501L180 501L180 501L90 501L90 501L0 501Z" fill="#00c48f"></path><path d="M0 389L90 389L90 385L180 385L180 344L270 344L270 390L360 390L360 345L450 345L450 359L540 359L540 360L630 360L630 358L720 358L720 346L810 346L810 370L900 370L900 360L990 360L990 330L1080 330L1080 398L1080 501L1080 501L990 501L990 501L900 501L900 501L810 501L810 501L720 501L720 501L630 501L630 501L540 501L540 501L450 501L450 501L360 501L360 501L270 501L270 501L180 501L180 501L90 501L90 501L0 501Z" fill="#008b75"></path><path d="M0 413L90 413L90 418L180 418L180 411L270 411L270 438L360 438L360 389L450 389L450 429L540 429L540 416L630 416L630 408L720 408L720 440L810 440L810 430L900 430L900 412L990 412L990 418L1080 418L1080 442L1080 501L1080 501L990 501L990 501L900 501L900 501L810 501L810 501L720 501L720 501L630 501L630 501L540 501L540 501L450 501L450 501L360 501L360 501L270 501L270 501L180 501L180 501L90 501L90 501L0 501Z" fill="#205550"></path><path d="M0 425L90 425L90 448L180 448L180 477L270 477L270 465L360 465L360 442L450 442L450 460L540 460L540 454L630 454L630 439L720 439L720 475L810 475L810 431L900 431L900 430L990 430L990 424L1080 424L1080 449L1080 501L1080 501L990 501L990 501L900 501L900 501L810 501L810 501L720 501L720 501L630 501L630 501L540 501L540 501L450 501L450 501L360 501L360 501L270 501L270 501L180 501L180 501L90 501L90 501L0 501Z" fill="#222323"></path></svg>