<svg id="visual" viewBox="0 0 3840 2160" width="3840" height="2160" xmlns="http://www.w3.org/2000/svg" xmlns:xlink="http://www.w3.org/1999/xlink" version="1.1"><rect x="0" y="0" width="3840" height="2160" fill="#f0ffff"></rect><path d="M0 1830L160 1742C320 1654 640 1478 960 1451.5C1280 1425 1600 1548 1920 1609.5C2240 1671 2560 1671 2880 1695.5C3200 1720 3520 1769 3680 1793.5L3840 1818L3840 2161L3680 2161C3520 2161 3200 2161 2880 2161C2560 2161 2240 2161 1920 2161C1600 2161 1280 2161 960 2161C640 2161 320 2161 160 2161L0 2161Z" fill="#222323" stroke-linecap="round" stroke-linejoin="miter"></path></svg>