<svg id="visual" viewBox="0 0 1200 600" width="1200" height="600" xmlns="http://www.w3.org/2000/svg" xmlns:xlink="http://www.w3.org/1999/xlink" version="1.1"><rect x="0" y="0" width="1200" height="600" fill="#222323"></rect><path d="M0 439L18.2 424.5C36.3 410 72.7 381 109 379.2C145.3 377.3 181.7 402.7 218 406C254.3 409.3 290.7 390.7 327 381.7C363.3 372.7 399.7 373.3 436 374.5C472.3 375.7 508.7 377.3 545.2 388.7C581.7 400 618.3 421 654.8 425.3C691.3 429.7 727.7 417.3 764 415.7C800.3 414 836.7 423 873 419.7C909.3 416.3 945.7 400.7 982 391.2C1018.3 381.7 1054.7 378.3 1091 381.3C1127.3 384.3 1163.7 393.7 1181.8 398.3L1200 403L1200 601L1181.8 601C1163.7 601 1127.3 601 1091 601C1054.7 601 1018.3 601 982 601C945.7 601 909.3 601 873 601C836.7 601 800.3 601 764 601C727.7 601 691.3 601 654.8 601C618.3 601 581.7 601 545.2 601C508.7 601 472.3 601 436 601C399.7 601 363.3 601 327 601C290.7 601 254.3 601 218 601C181.7 601 145.3 601 109 601C72.7 601 36.3 601 18.2 601L0 601Z" fill="#00ff9b"></path><path d="M0 373L18.2 375.3C36.3 377.7 72.7 382.3 109 392.7C145.3 403 181.7 419 218 431.8C254.3 444.7 290.7 454.3 327 446.2C363.3 438 399.7 412 436 406.3C472.3 400.7 508.7 415.3 545.2 414C581.7 412.7 618.3 395.3 654.8 393.3C691.3 391.3 727.7 404.7 764 415.7C800.3 426.7 836.7 435.3 873 439.8C909.3 444.3 945.7 444.7 982 432.3C1018.3 420 1054.7 395 1091 386.8C1127.3 378.7 1163.7 387.3 1181.8 391.7L1200 396L1200 601L1181.8 601C1163.7 601 1127.3 601 1091 601C1054.7 601 1018.3 601 982 601C945.7 601 909.3 601 873 601C836.7 601 800.3 601 764 601C727.7 601 691.3 601 654.8 601C618.3 601 581.7 601 545.2 601C508.7 601 472.3 601 436 601C399.7 601 363.3 601 327 601C290.7 601 254.3 601 218 601C181.7 601 145.3 601 109 601C72.7 601 36.3 601 18.2 601L0 601Z" fill="#2affb7"></path><path d="M0 421L18.2 417.5C36.3 414 72.7 407 109 411.7C145.3 416.3 181.7 432.7 218 434.8C254.3 437 290.7 425 327 430C363.3 435 399.7 457 436 465.5C472.3 474 508.7 469 545.2 468C581.7 467 618.3 470 654.8 471C691.3 472 727.7 471 764 472.7C800.3 474.3 836.7 478.7 873 473.2C909.3 467.7 945.7 452.3 982 451.8C1018.3 451.3 1054.7 465.7 1091 468.5C1127.3 471.3 1163.7 462.7 1181.8 458.3L1200 454L1200 601L1181.8 601C1163.7 601 1127.3 601 1091 601C1054.7 601 1018.3 601 982 601C945.7 601 909.3 601 873 601C836.7 601 800.3 601 764 601C727.7 601 691.3 601 654.8 601C618.3 601 581.7 601 545.2 601C508.7 601 472.3 601 436 601C399.7 601 363.3 601 327 601C290.7 601 254.3 601 218 601C181.7 601 145.3 601 109 601C72.7 601 36.3 601 18.2 601L0 601Z" fill="#4effce"></path><path d="M0 441L18.2 442C36.3 443 72.7 445 109 452.3C145.3 459.7 181.7 472.3 218 473.5C254.3 474.7 290.7 464.3 327 464.8C363.3 465.3 399.7 476.7 436 473C472.3 469.3 508.7 450.7 545.2 451.2C581.7 451.7 618.3 471.3 654.8 476.8C691.3 482.3 727.7 473.7 764 476C800.3 478.3 836.7 491.7 873 497.7C909.3 503.7 945.7 502.3 982 493.8C1018.3 485.3 1054.7 469.7 1091 461.2C1127.3 452.7 1163.7 451.3 1181.8 450.7L1200 450L1200 601L1181.8 601C1163.7 601 1127.3 601 1091 601C1054.7 601 1018.3 601 982 601C945.7 601 909.3 601 873 601C836.7 601 800.3 601 764 601C727.7 601 691.3 601 654.8 601C618.3 601 581.7 601 545.2 601C508.7 601 472.3 601 436 601C399.7 601 363.3 601 327 601C290.7 601 254.3 601 218 601C181.7 601 145.3 601 109 601C72.7 601 36.3 601 18.2 601L0 601Z" fill="#71ffe1"></path><path d="M0 457L18.2 462C36.3 467 72.7 477 109 488.2C145.3 499.3 181.7 511.7 218 516.7C254.3 521.7 290.7 519.3 327 514.3C363.3 509.3 399.7 501.7 436 491.7C472.3 481.7 508.7 469.3 545.2 468.8C581.7 468.3 618.3 479.7 654.8 486.8C691.3 494 727.7 497 764 492.8C800.3 488.7 836.7 477.3 873 470.3C909.3 463.3 945.7 460.7 982 466.2C1018.3 471.7 1054.7 485.3 1091 488.3C1127.3 491.3 1163.7 483.7 1181.8 479.8L1200 476L1200 601L1181.8 601C1163.7 601 1127.3 601 1091 601C1054.7 601 1018.3 601 982 601C945.7 601 909.3 601 873 601C836.7 601 800.3 601 764 601C727.7 601 691.3 601 654.8 601C618.3 601 581.7 601 545.2 601C508.7 601 472.3 601 436 601C399.7 601 363.3 601 327 601C290.7 601 254.3 601 218 601C181.7 601 145.3 601 109 601C72.7 601 36.3 601 18.2 601L0 601Z" fill="#93ffee"></path><path d="M0 525L18.2 519.2C36.3 513.3 72.7 501.7 109 497.2C145.3 492.7 181.7 495.3 218 494.7C254.3 494 290.7 490 327 490.8C363.3 491.7 399.7 497.3 436 506.3C472.3 515.3 508.7 527.7 545.2 525C581.7 522.3 618.3 504.7 654.8 496.3C691.3 488 727.7 489 764 491.3C800.3 493.7 836.7 497.3 873 499.8C909.3 502.3 945.7 503.7 982 505.2C1018.3 506.7 1054.7 508.3 1091 514C1127.3 519.7 1163.7 529.3 1181.8 534.2L1200 539L1200 601L1181.8 601C1163.7 601 1127.3 601 1091 601C1054.7 601 1018.3 601 982 601C945.7 601 909.3 601 873 601C836.7 601 800.3 601 764 601C727.7 601 691.3 601 654.8 601C618.3 601 581.7 601 545.2 601C508.7 601 472.3 601 436 601C399.7 601 363.3 601 327 601C290.7 601 254.3 601 218 601C181.7 601 145.3 601 109 601C72.7 601 36.3 601 18.2 601L0 601Z" fill="#b3fff7"></path><path d="M0 553L18.2 552C36.3 551 72.7 549 109 545.8C145.3 542.7 181.7 538.3 218 541.5C254.3 544.7 290.7 555.3 327 559.5C363.3 563.7 399.7 561.3 436 554.5C472.3 547.7 508.7 536.3 545.2 534.3C581.7 532.3 618.3 539.7 654.8 541C691.3 542.3 727.7 537.7 764 536C800.3 534.3 836.7 535.7 873 536.5C909.3 537.3 945.7 537.7 982 540.8C1018.3 544 1054.7 550 1091 552.3C1127.3 554.7 1163.7 553.3 1181.8 552.7L1200 552L1200 601L1181.8 601C1163.7 601 1127.3 601 1091 601C1054.7 601 1018.3 601 982 601C945.7 601 909.3 601 873 601C836.7 601 800.3 601 764 601C727.7 601 691.3 601 654.8 601C618.3 601 581.7 601 545.2 601C508.7 601 472.3 601 436 601C399.7 601 363.3 601 327 601C290.7 601 254.3 601 218 601C181.7 601 145.3 601 109 601C72.7 601 36.3 601 18.2 601L0 601Z" fill="#d2fffd"></path><path d="M0 568L18.2 570.7C36.3 573.3 72.7 578.7 109 575.3C145.3 572 181.7 560 218 555.2C254.3 550.3 290.7 552.7 327 555.5C363.3 558.3 399.7 561.7 436 566.2C472.3 570.7 508.7 576.3 545.2 579.3C581.7 582.3 618.3 582.7 654.8 581.3C691.3 580 727.7 577 764 573.5C800.3 570 836.7 566 873 566C909.3 566 945.7 570 982 573.5C1018.3 577 1054.7 580 1091 580C1127.3 580 1163.7 577 1181.8 575.5L1200 574L1200 601L1181.8 601C1163.7 601 1127.3 601 1091 601C1054.7 601 1018.3 601 982 601C945.7 601 909.3 601 873 601C836.7 601 800.3 601 764 601C727.7 601 691.3 601 654.8 601C618.3 601 581.7 601 545.2 601C508.7 601 472.3 601 436 601C399.7 601 363.3 601 327 601C290.7 601 254.3 601 218 601C181.7 601 145.3 601 109 601C72.7 601 36.3 601 18.2 601L0 601Z" fill="#f0ffff"></path></svg>