<svg id="visual" viewBox="0 0 1920 1080" width="1920" height="1080" xmlns="http://www.w3.org/2000/svg" xmlns:xlink="http://www.w3.org/1999/xlink" version="1.1"><rect x="0" y="0" width="1920" height="1080" fill="#222323"></rect><defs><linearGradient id="grad1_0" x1="43.8%" y1="100%" x2="100%" y2="0%"><stop offset="14.444444444444446%" stop-color="#00ff9b" stop-opacity="1"></stop><stop offset="85.55555555555554%" stop-color="#00ff9b" stop-opacity="1"></stop></linearGradient></defs><defs><linearGradient id="grad1_1" x1="43.8%" y1="100%" x2="100%" y2="0%"><stop offset="14.444444444444446%" stop-color="#00ff9b" stop-opacity="1"></stop><stop offset="85.55555555555554%" stop-color="#00d092" stop-opacity="1"></stop></linearGradient></defs><defs><linearGradient id="grad1_2" x1="43.8%" y1="100%" x2="100%" y2="0%"><stop offset="14.444444444444446%" stop-color="#00a281" stop-opacity="1"></stop><stop offset="85.55555555555554%" stop-color="#00d092" stop-opacity="1"></stop></linearGradient></defs><defs><linearGradient id="grad1_3" x1="43.8%" y1="100%" x2="100%" y2="0%"><stop offset="14.444444444444446%" stop-color="#00a281" stop-opacity="1"></stop><stop offset="85.55555555555554%" stop-color="#007568" stop-opacity="1"></stop></linearGradient></defs><defs><linearGradient id="grad1_4" x1="43.8%" y1="100%" x2="100%" y2="0%"><stop offset="14.444444444444446%" stop-color="#1e4b48" stop-opacity="1"></stop><stop offset="85.55555555555554%" stop-color="#007568" stop-opacity="1"></stop></linearGradient></defs><defs><linearGradient id="grad1_5" x1="43.8%" y1="100%" x2="100%" y2="0%"><stop offset="14.444444444444446%" stop-color="#1e4b48" stop-opacity="1"></stop><stop offset="85.55555555555554%" stop-color="#222323" stop-opacity="1"></stop></linearGradient></defs><defs><linearGradient id="grad2_0" x1="0%" y1="100%" x2="56.3%" y2="0%"><stop offset="14.444444444444446%" stop-color="#00ff9b" stop-opacity="1"></stop><stop offset="85.55555555555554%" stop-color="#00ff9b" stop-opacity="1"></stop></linearGradient></defs><defs><linearGradient id="grad2_1" x1="0%" y1="100%" x2="56.3%" y2="0%"><stop offset="14.444444444444446%" stop-color="#00d092" stop-opacity="1"></stop><stop offset="85.55555555555554%" stop-color="#00ff9b" stop-opacity="1"></stop></linearGradient></defs><defs><linearGradient id="grad2_2" x1="0%" y1="100%" x2="56.3%" y2="0%"><stop offset="14.444444444444446%" stop-color="#00d092" stop-opacity="1"></stop><stop offset="85.55555555555554%" stop-color="#00a281" stop-opacity="1"></stop></linearGradient></defs><defs><linearGradient id="grad2_3" x1="0%" y1="100%" x2="56.3%" y2="0%"><stop offset="14.444444444444446%" stop-color="#007568" stop-opacity="1"></stop><stop offset="85.55555555555554%" stop-color="#00a281" stop-opacity="1"></stop></linearGradient></defs><defs><linearGradient id="grad2_4" x1="0%" y1="100%" x2="56.3%" y2="0%"><stop offset="14.444444444444446%" stop-color="#007568" stop-opacity="1"></stop><stop offset="85.55555555555554%" stop-color="#1e4b48" stop-opacity="1"></stop></linearGradient></defs><defs><linearGradient id="grad2_5" x1="0%" y1="100%" x2="56.3%" y2="0%"><stop offset="14.444444444444446%" stop-color="#222323" stop-opacity="1"></stop><stop offset="85.55555555555554%" stop-color="#1e4b48" stop-opacity="1"></stop></linearGradient></defs><g transform="translate(1920, 1080)"><path d="M-540 0C-544 -42.3 -548.1 -84.5 -526.5 -120.2C-504.8 -155.8 -457.6 -184.9 -408.1 -196.5C-358.7 -208.2 -307.1 -202.5 -295.5 -235.7C-284 -268.8 -312.5 -340.8 -298.7 -374.5C-284.9 -408.2 -228.8 -403.7 -184.8 -383.8C-140.9 -363.9 -109.1 -328.5 -80.3 -351.9C-51.5 -375.4 -25.8 -457.7 0 -540L0 0Z" fill="#223636"></path><path d="M-450 0C-453.4 -35.2 -456.7 -70.4 -438.7 -100.1C-420.7 -129.8 -381.3 -154.1 -340.1 -163.8C-298.9 -173.5 -255.9 -168.8 -246.3 -196.4C-236.6 -224 -260.4 -284 -248.9 -312.1C-237.4 -340.2 -190.6 -336.5 -154 -319.8C-117.4 -303.2 -90.9 -273.7 -66.9 -293.3C-43 -312.8 -21.5 -381.4 0 -450L0 0Z" fill="#125f58"></path><path d="M-360 0C-362.7 -28.2 -365.4 -56.3 -351 -80.1C-336.6 -103.9 -305.1 -123.2 -272.1 -131C-239.1 -138.8 -204.7 -135 -197 -157.1C-189.3 -179.2 -208.3 -227.2 -199.1 -249.7C-189.9 -272.2 -152.5 -269.2 -123.2 -255.9C-93.9 -242.6 -72.7 -219 -53.6 -234.6C-34.4 -250.3 -17.2 -305.1 0 -360L0 0Z" fill="#008b75"></path><path d="M-270 0C-272 -21.1 -274 -42.3 -263.2 -60.1C-252.4 -77.9 -228.8 -92.4 -204.1 -98.3C-179.4 -104.1 -153.5 -101.3 -147.8 -117.8C-142 -134.4 -156.2 -170.4 -149.3 -187.2C-142.4 -204.1 -114.4 -201.9 -92.4 -191.9C-70.4 -181.9 -54.6 -164.2 -40.2 -176C-25.8 -187.7 -12.9 -228.9 0 -270L0 0Z" fill="#00b98b"></path><path d="M-180 0C-181.3 -14.1 -182.7 -28.2 -175.5 -40.1C-168.3 -51.9 -152.5 -61.6 -136 -65.5C-119.6 -69.4 -102.4 -67.5 -98.5 -78.6C-94.7 -89.6 -104.2 -113.6 -99.6 -124.8C-95 -136.1 -76.3 -134.6 -61.6 -127.9C-47 -121.3 -36.4 -109.5 -26.8 -117.3C-17.2 -125.1 -8.6 -152.6 0 -180L0 0Z" fill="#00e798"></path><path d="M-90 0C-90.7 -7 -91.3 -14.1 -87.7 -20C-84.1 -26 -76.3 -30.8 -68 -32.8C-59.8 -34.7 -51.2 -33.8 -49.3 -39.3C-47.3 -44.8 -52.1 -56.8 -49.8 -62.4C-47.5 -68 -38.1 -67.3 -30.8 -64C-23.5 -60.6 -18.2 -54.7 -13.4 -58.7C-8.6 -62.6 -4.3 -76.3 0 -90L0 0Z" fill="#00ff9b"></path></g><g transform="translate(0, 0)"><path d="M540 0C480.1 29.5 420.2 59 396.8 90.6C373.4 122.1 386.5 155.8 370.3 178.3C354.1 200.8 308.6 212.2 279.9 223.2C251.2 234.2 239.5 244.8 241.3 302.6C243.1 360.4 258.6 465.4 234.3 486.5C210 507.6 146 444.8 100.4 439.7C54.7 434.6 27.3 487.3 0 540L0 0Z" fill="#223636"></path><path d="M450 0C400.1 24.6 350.2 49.2 330.7 75.5C311.2 101.8 322.1 129.8 308.6 148.6C295.1 167.4 257.1 176.9 233.2 186C209.4 195.2 199.5 204 201.1 252.1C202.6 300.3 215.5 387.9 195.2 405.4C175 423 121.7 370.6 83.6 366.4C45.6 362.2 22.8 406.1 0 450L0 0Z" fill="#125f58"></path><path d="M360 0C320.1 19.7 280.1 39.3 264.5 60.4C248.9 81.4 257.7 103.9 246.9 118.9C236.1 133.9 205.7 141.5 186.6 148.8C167.5 156.1 159.6 163.2 160.9 201.7C162.1 240.3 172.4 310.3 156.2 324.3C140 338.4 97.4 296.5 66.9 293.1C36.5 289.7 18.2 324.9 0 360L0 0Z" fill="#008b75"></path><path d="M270 0C240 14.7 210.1 29.5 198.4 45.3C186.7 61.1 193.3 77.9 185.1 89.2C177 100.4 154.3 106.1 139.9 111.6C125.6 117.1 119.7 122.4 120.6 151.3C121.6 180.2 129.3 232.7 117.1 243.3C105 253.8 73 222.4 50.2 219.8C27.3 217.3 13.7 243.7 0 270L0 0Z" fill="#00b98b"></path><path d="M180 0C160 9.8 140.1 19.7 132.3 30.2C124.5 40.7 128.8 51.9 123.4 59.4C118 66.9 102.9 70.7 93.3 74.4C83.7 78.1 79.8 81.6 80.4 100.9C81 120.1 86.2 155.1 78.1 162.2C70 169.2 48.7 148.3 33.5 146.6C18.2 144.9 9.1 162.4 0 180L0 0Z" fill="#00e798"></path><path d="M90 0C80 4.9 70 9.8 66.1 15.1C62.2 20.4 64.4 26 61.7 29.7C59 33.5 51.4 35.4 46.6 37.2C41.9 39 39.9 40.8 40.2 50.4C40.5 60.1 43.1 77.6 39 81.1C35 84.6 24.3 74.1 16.7 73.3C9.1 72.4 4.6 81.2 0 90L0 0Z" fill="#00ff9b"></path></g></svg>