<svg id="visual" viewBox="0 0 3840 2160" width="3840" height="2160" xmlns="http://www.w3.org/2000/svg" xmlns:xlink="http://www.w3.org/1999/xlink" version="1.1"><rect x="0" y="0" width="3840" height="2160" fill="#001220"></rect><path d="M0 1742L53.3 1739.3C106.7 1736.7 213.3 1731.3 320 1743.3C426.7 1755.3 533.3 1784.7 640 1784.2C746.7 1783.7 853.3 1753.3 960 1739.7C1066.7 1726 1173.3 1729 1280 1742.7C1386.7 1756.3 1493.3 1780.7 1600 1787.5C1706.7 1794.3 1813.3 1783.7 1920 1785.2C2026.7 1786.7 2133.3 1800.3 2240 1812.2C2346.7 1824 2453.3 1834 2560 1835.3C2666.7 1836.7 2773.3 1829.3 2880 1798.7C2986.7 1768 3093.3 1714 3200 1707.7C3306.7 1701.3 3413.3 1742.7 3520 1768.2C3626.7 1793.7 3733.3 1803.3 3786.7 1808.2L3840 1813L3840 2161L3786.7 2161C3733.3 2161 3626.7 2161 3520 2161C3413.3 2161 3306.7 2161 3200 2161C3093.3 2161 2986.7 2161 2880 2161C2773.3 2161 2666.7 2161 2560 2161C2453.3 2161 2346.7 2161 2240 2161C2133.3 2161 2026.7 2161 1920 2161C1813.3 2161 1706.7 2161 1600 2161C1493.3 2161 1386.7 2161 1280 2161C1173.3 2161 1066.7 2161 960 2161C853.3 2161 746.7 2161 640 2161C533.3 2161 426.7 2161 320 2161C213.3 2161 106.7 2161 53.3 2161L0 2161Z" fill="#007fff"></path><path d="M0 1880L53.3 1885C106.7 1890 213.3 1900 320 1877.3C426.7 1854.7 533.3 1799.3 640 1786.5C746.7 1773.7 853.3 1803.3 960 1813.8C1066.7 1824.3 1173.3 1815.7 1280 1801.8C1386.7 1788 1493.3 1769 1600 1751.8C1706.7 1734.7 1813.3 1719.3 1920 1734.8C2026.7 1750.3 2133.3 1796.7 2240 1826.5C2346.7 1856.3 2453.3 1869.7 2560 1853.7C2666.7 1837.7 2773.3 1792.3 2880 1776C2986.7 1759.7 3093.3 1772.3 3200 1803C3306.7 1833.7 3413.3 1882.3 3520 1904.2C3626.7 1926 3733.3 1921 3786.7 1918.5L3840 1916L3840 2161L3786.7 2161C3733.3 2161 3626.7 2161 3520 2161C3413.3 2161 3306.7 2161 3200 2161C3093.3 2161 2986.7 2161 2880 2161C2773.3 2161 2666.7 2161 2560 2161C2453.3 2161 2346.7 2161 2240 2161C2133.3 2161 2026.7 2161 1920 2161C1813.3 2161 1706.7 2161 1600 2161C1493.3 2161 1386.7 2161 1280 2161C1173.3 2161 1066.7 2161 960 2161C853.3 2161 746.7 2161 640 2161C533.3 2161 426.7 2161 320 2161C213.3 2161 106.7 2161 53.3 2161L0 2161Z" fill="#00abff"></path><path d="M0 1990L53.3 1985.8C106.7 1981.7 213.3 1973.3 320 1963C426.7 1952.7 533.3 1940.3 640 1921.3C746.7 1902.3 853.3 1876.7 960 1867.8C1066.7 1859 1173.3 1867 1280 1881.3C1386.7 1895.7 1493.3 1916.3 1600 1930.7C1706.7 1945 1813.3 1953 1920 1956.8C2026.7 1960.7 2133.3 1960.3 2240 1953.3C2346.7 1946.3 2453.3 1932.7 2560 1935C2666.7 1937.3 2773.3 1955.7 2880 1963.3C2986.7 1971 3093.3 1968 3200 1962.2C3306.7 1956.3 3413.3 1947.7 3520 1921.3C3626.7 1895 3733.3 1851 3786.7 1829L3840 1807L3840 2161L3786.7 2161C3733.3 2161 3626.7 2161 3520 2161C3413.3 2161 3306.7 2161 3200 2161C3093.3 2161 2986.7 2161 2880 2161C2773.3 2161 2666.7 2161 2560 2161C2453.3 2161 2346.7 2161 2240 2161C2133.3 2161 2026.7 2161 1920 2161C1813.3 2161 1706.7 2161 1600 2161C1493.3 2161 1386.7 2161 1280 2161C1173.3 2161 1066.7 2161 960 2161C853.3 2161 746.7 2161 640 2161C533.3 2161 426.7 2161 320 2161C213.3 2161 106.7 2161 53.3 2161L0 2161Z" fill="#00ceff"></path><path d="M0 2026L53.3 2021C106.7 2016 213.3 2006 320 2004.7C426.7 2003.3 533.3 2010.7 640 2004.8C746.7 1999 853.3 1980 960 1960.7C1066.7 1941.3 1173.3 1921.7 1280 1914.3C1386.7 1907 1493.3 1912 1600 1918.5C1706.7 1925 1813.3 1933 1920 1955.8C2026.7 1978.7 2133.3 2016.3 2240 2012.7C2346.7 2009 2453.3 1964 2560 1946C2666.7 1928 2773.3 1937 2880 1944C2986.7 1951 3093.3 1956 3200 1966.3C3306.7 1976.7 3413.3 1992.3 3520 1985.5C3626.7 1978.7 3733.3 1949.3 3786.7 1934.7L3840 1920L3840 2161L3786.7 2161C3733.3 2161 3626.7 2161 3520 2161C3413.3 2161 3306.7 2161 3200 2161C3093.3 2161 2986.7 2161 2880 2161C2773.3 2161 2666.7 2161 2560 2161C2453.3 2161 2346.7 2161 2240 2161C2133.3 2161 2026.7 2161 1920 2161C1813.3 2161 1706.7 2161 1600 2161C1493.3 2161 1386.7 2161 1280 2161C1173.3 2161 1066.7 2161 960 2161C853.3 2161 746.7 2161 640 2161C533.3 2161 426.7 2161 320 2161C213.3 2161 106.7 2161 53.3 2161L0 2161Z" fill="#00ecea"></path><path d="M0 2077L53.3 2072.5C106.7 2068 213.3 2059 320 2048.2C426.7 2037.3 533.3 2024.7 640 2019.3C746.7 2014 853.3 2016 960 2030.5C1066.7 2045 1173.3 2072 1280 2073.7C1386.7 2075.3 1493.3 2051.7 1600 2052.5C1706.7 2053.3 1813.3 2078.7 1920 2074.3C2026.7 2070 2133.3 2036 2240 2022C2346.7 2008 2453.3 2014 2560 2026C2666.7 2038 2773.3 2056 2880 2065.8C2986.7 2075.7 3093.3 2077.3 3200 2073.8C3306.7 2070.3 3413.3 2061.7 3520 2048.7C3626.7 2035.7 3733.3 2018.3 3786.7 2009.7L3840 2001L3840 2161L3786.7 2161C3733.3 2161 3626.7 2161 3520 2161C3413.3 2161 3306.7 2161 3200 2161C3093.3 2161 2986.7 2161 2880 2161C2773.3 2161 2666.7 2161 2560 2161C2453.3 2161 2346.7 2161 2240 2161C2133.3 2161 2026.7 2161 1920 2161C1813.3 2161 1706.7 2161 1600 2161C1493.3 2161 1386.7 2161 1280 2161C1173.3 2161 1066.7 2161 960 2161C853.3 2161 746.7 2161 640 2161C533.3 2161 426.7 2161 320 2161C213.3 2161 106.7 2161 53.3 2161L0 2161Z" fill="#00ff9b"></path></svg>