<svg xmlns="http://www.w3.org/2000/svg" xmlns:xlink="http://www.w3.org/1999/xlink" xmlns:svgjs="http://svgjs.com/svgjs" version="1.1" width="1440" height="560" preserveAspectRatio="none" viewBox="0 0 1440 560"><g mask="url(&quot;#SvgjsMask1007&quot;)" fill="none"><rect width="1440" height="560" x="0" y="0" fill="rgba(34, 35, 35, 1)"/><path d="M568.13 621.95C715.41 558.09 650.12 98.72 936.53 96.02 1222.94 93.32 1480.81 317.56 1673.32 320.02" stroke="rgba(255, 0, 100, 1)" stroke-width="2"/><path d="M393.89 604.22C597.55 571.23 704.22 77.71 1028.22 76.3 1352.21 74.89 1490.93 334.34 1662.54 339.5" stroke="rgba(255, 0, 100, 1)" stroke-width="2"/><path d="M671.12 583.88C793.73 545.3 750.19 193.04 1004.26 192.27 1258.33 191.5 1496.11 397.1 1670.53 399.47" stroke="rgba(255, 0, 100, 1)" stroke-width="2"/><path d="M726.53 645.91C861.42 628.31 938.91 319.7 1161.25 318.64 1383.59 317.58 1481.81 456.93 1595.97 458.64" stroke="rgba(255, 0, 100, 1)" stroke-width="2"/><path d="M326.36 645.7C449.22 643.34 557.02 482.63 790.01 482.51 1023 482.39 1021.84 552.51 1253.66 552.51 1485.48 552.51 1600.08 482.71 1717.31 482.51" stroke="rgba(255, 0, 100, 1)" stroke-width="2"/></g><defs><mask id="SvgjsMask1007"><rect width="1440" height="560" fill="#ffffff"/></mask></defs></svg>