<svg xmlns="http://www.w3.org/2000/svg" xmlns:xlink="http://www.w3.org/1999/xlink" id="visual" viewBox="0 0 1920 1080" width="1920" height="1080" version="1.1">
	<path d="M0 271L29.2 267.3C58.3 263.7 116.7 256.3 174.8 254.5C233 252.7 291 256.3 349.2 234.8C407.3 213.3 465.7 166.7 523.8 161.3C582 156 640 192 698.2 188.3C756.3 184.7 814.7 141.3 872.8 150.3C931 159.3 989 220.7 1047.2 235.2C1105.3 249.7 1163.7 217.3 1221.8 193.8C1280 170.3 1338 155.7 1396.2 155.7C1454.3 155.7 1512.7 170.3 1570.8 168.7C1629 167 1687 149 1745.2 140C1803.3 131 1861.7 131 1890.8 131L1920 131L1920 0L1890.8 0C1861.7 0 1803.3 0 1745.2 0C1687 0 1629 0 1570.8 0C1512.7 0 1454.3 0 1396.2 0C1338 0 1280 0 1221.8 0C1163.7 0 1105.3 0 1047.2 0C989 0 931 0 872.8 0C814.7 0 756.3 0 698.2 0C640 0 582 0 523.8 0C465.7 0 407.3 0 349.2 0C291 0 233 0 174.8 0C116.7 0 58.3 0 29.2 0L0 0Z" fill="#f0ffff"/>
	<path d="M0 422L29.2 441.8C58.3 461.7 116.7 501.3 174.8 503.2C233 505 291 469 349.2 463.7C407.3 458.3 465.7 483.7 523.8 480C582 476.3 640 443.7 698.2 429.2C756.3 414.7 814.7 418.3 872.8 423.8C931 429.3 989 436.7 1047.2 440.3C1105.3 444 1163.7 444 1221.8 444C1280 444 1338 444 1396.2 454.8C1454.3 465.7 1512.7 487.3 1570.8 501.7C1629 516 1687 523 1745.2 524.7C1803.3 526.3 1861.7 522.7 1890.8 520.8L1920 519L1920 129L1890.8 129C1861.7 129 1803.3 129 1745.2 138C1687 147 1629 165 1570.8 166.7C1512.7 168.3 1454.3 153.7 1396.2 153.7C1338 153.7 1280 168.3 1221.8 191.8C1163.7 215.3 1105.3 247.7 1047.2 233.2C989 218.7 931 157.3 872.8 148.3C814.7 139.3 756.3 182.7 698.2 186.3C640 190 582 154 523.8 159.3C465.7 164.7 407.3 211.3 349.2 232.8C291 254.3 233 250.7 174.8 252.5C116.7 254.3 58.3 261.7 29.2 265.3L0 269Z" fill="#d3e0e0"/>
	<path d="M0 563L29.2 572C58.3 581 116.7 599 174.8 613.3C233 627.7 291 638.3 349.2 641.8C407.3 645.3 465.7 641.7 523.8 625.5C582 609.3 640 580.7 698.2 569.8C756.3 559 814.7 566 872.8 569.5C931 573 989 573 1047.2 567.7C1105.3 562.3 1163.7 551.7 1221.8 550C1280 548.3 1338 555.7 1396.2 568.3C1454.3 581 1512.7 599 1570.8 615.2C1629 631.3 1687 645.7 1745.2 665.3C1803.3 685 1861.7 710 1890.8 722.5L1920 735L1920 517L1890.8 518.8C1861.7 520.7 1803.3 524.3 1745.2 522.7C1687 521 1629 514 1570.8 499.7C1512.7 485.3 1454.3 463.7 1396.2 452.8C1338 442 1280 442 1221.8 442C1163.7 442 1105.3 442 1047.2 438.3C989 434.7 931 427.3 872.8 421.8C814.7 416.3 756.3 412.7 698.2 427.2C640 441.7 582 474.3 523.8 478C465.7 481.7 407.3 456.3 349.2 461.7C291 467 233 503 174.8 501.2C116.7 499.3 58.3 459.7 29.2 439.8L0 420Z" fill="#b7c2c2"/>
	<path d="M0 681L29.2 690C58.3 699 116.7 717 174.8 722.5C233 728 291 721 349.2 719.3C407.3 717.7 465.7 721.3 523.8 701.5C582 681.7 640 638.3 698.2 631C756.3 623.7 814.7 652.3 872.8 659.5C931 666.7 989 652.3 1047.2 643.3C1105.3 634.3 1163.7 630.7 1221.8 636.2C1280 641.7 1338 656.3 1396.2 672.7C1454.3 689 1512.7 707 1570.8 717.7C1629 728.3 1687 731.7 1745.2 749.7C1803.3 767.7 1861.7 800.3 1890.8 816.7L1920 833L1920 733L1890.8 720.5C1861.7 708 1803.3 683 1745.2 663.3C1687 643.7 1629 629.3 1570.8 613.2C1512.7 597 1454.3 579 1396.2 566.3C1338 553.7 1280 546.3 1221.8 548C1163.7 549.7 1105.3 560.3 1047.2 565.7C989 571 931 571 872.8 567.5C814.7 564 756.3 557 698.2 567.8C640 578.7 582 607.3 523.8 623.5C465.7 639.7 407.3 643.3 349.2 639.8C291 636.3 233 625.7 174.8 611.3C116.7 597 58.3 579 29.2 570L0 561Z" fill="#9ca4a4"/>
	<path d="M0 757L29.2 764.2C58.3 771.3 116.7 785.7 174.8 785.7C233 785.7 291 771.3 349.2 771.3C407.3 771.3 465.7 785.7 523.8 773C582 760.3 640 720.7 698.2 709.8C756.3 699 814.7 717 872.8 717C931 717 989 699 1047.2 695.5C1105.3 692 1163.7 703 1221.8 719.3C1280 735.7 1338 757.3 1396.2 775.3C1454.3 793.3 1512.7 807.7 1570.8 809.3C1629 811 1687 800 1745.2 807.2C1803.3 814.3 1861.7 839.7 1890.8 852.3L1920 865L1920 831L1890.8 814.7C1861.7 798.3 1803.3 765.7 1745.2 747.7C1687 729.7 1629 726.3 1570.8 715.7C1512.7 705 1454.3 687 1396.2 670.7C1338 654.3 1280 639.7 1221.8 634.2C1163.7 628.7 1105.3 632.3 1047.2 641.3C989 650.3 931 664.7 872.8 657.5C814.7 650.3 756.3 621.7 698.2 629C640 636.3 582 679.7 523.8 699.5C465.7 719.3 407.3 715.7 349.2 717.3C291 719 233 726 174.8 720.5C116.7 715 58.3 697 29.2 688L0 679Z" fill="#818888"/>
	<path d="M0 811L29.2 816.3C58.3 821.7 116.7 832.3 174.8 839.5C233 846.7 291 850.3 349.2 857.7C407.3 865 465.7 876 523.8 859.8C582 843.7 640 800.3 698.2 794.8C756.3 789.3 814.7 821.7 872.8 828.8C931 836 989 818 1047.2 814.5C1105.3 811 1163.7 822 1221.8 836.5C1280 851 1338 869 1396.2 885.2C1454.3 901.3 1512.7 915.7 1570.8 917.3C1629 919 1687 908 1745.2 904.3C1803.3 900.7 1861.7 904.3 1890.8 906.2L1920 908L1920 863L1890.8 850.3C1861.7 837.7 1803.3 812.3 1745.2 805.2C1687 798 1629 809 1570.8 807.3C1512.7 805.7 1454.3 791.3 1396.2 773.3C1338 755.3 1280 733.7 1221.8 717.3C1163.7 701 1105.3 690 1047.2 693.5C989 697 931 715 872.8 715C814.7 715 756.3 697 698.2 707.8C640 718.7 582 758.3 523.8 771C465.7 783.7 407.3 769.3 349.2 769.3C291 769.3 233 783.7 174.8 783.7C116.7 783.7 58.3 769.3 29.2 762.2L0 755Z" fill="#676d6d"/>
	<path d="M0 854L29.2 866.7C58.3 879.3 116.7 904.7 174.8 915.5C233 926.3 291 922.7 349.2 924.5C407.3 926.3 465.7 933.7 523.8 921C582 908.3 640 875.7 698.2 872C756.3 868.3 814.7 893.7 872.8 899.2C931 904.7 989 890.3 1047.2 890.3C1105.3 890.3 1163.7 904.7 1221.8 920.8C1280 937 1338 955 1396.2 965.8C1454.3 976.7 1512.7 980.3 1570.8 975C1629 969.7 1687 955.3 1745.2 948.2C1803.3 941 1861.7 941 1890.8 941L1920 941L1920 906L1890.8 904.2C1861.7 902.3 1803.3 898.7 1745.2 902.3C1687 906 1629 917 1570.8 915.3C1512.7 913.7 1454.3 899.3 1396.2 883.2C1338 867 1280 849 1221.8 834.5C1163.7 820 1105.3 809 1047.2 812.5C989 816 931 834 872.8 826.8C814.7 819.7 756.3 787.3 698.2 792.8C640 798.3 582 841.7 523.8 857.8C465.7 874 407.3 863 349.2 855.7C291 848.3 233 844.7 174.8 837.5C116.7 830.3 58.3 819.7 29.2 814.3L0 809Z" fill="#4f5353"/>
	<path d="M0 930L29.2 940.8C58.3 951.7 116.7 973.3 174.8 985.8C233 998.3 291 1001.7 349.2 999.8C407.3 998 465.7 991 523.8 978.5C582 966 640 948 698.2 951.5C756.3 955 814.7 980 872.8 985.3C931 990.7 989 976.3 1047.2 969.2C1105.3 962 1163.7 962 1221.8 971C1280 980 1338 998 1396.2 1007C1454.3 1016 1512.7 1016 1570.8 1010.7C1629 1005.3 1687 994.7 1745.2 991.2C1803.3 987.7 1861.7 991.3 1890.8 993.2L1920 995L1920 939L1890.8 939C1861.7 939 1803.3 939 1745.2 946.2C1687 953.3 1629 967.7 1570.8 973C1512.7 978.3 1454.3 974.7 1396.2 963.8C1338 953 1280 935 1221.8 918.8C1163.7 902.7 1105.3 888.3 1047.2 888.3C989 888.3 931 902.7 872.8 897.2C814.7 891.7 756.3 866.3 698.2 870C640 873.7 582 906.3 523.8 919C465.7 931.7 407.3 924.3 349.2 922.5C291 920.7 233 924.3 174.8 913.5C116.7 902.7 58.3 877.3 29.2 864.7L0 852Z" fill="#383a3a"/>
	<path d="M0 1081L29.2 1081C58.3 1081 116.7 1081 174.8 1081C233 1081 291 1081 349.2 1081C407.3 1081 465.7 1081 523.8 1081C582 1081 640 1081 698.2 1081C756.3 1081 814.7 1081 872.8 1081C931 1081 989 1081 1047.2 1081C1105.3 1081 1163.7 1081 1221.8 1081C1280 1081 1338 1081 1396.2 1081C1454.3 1081 1512.7 1081 1570.8 1081C1629 1081 1687 1081 1745.2 1081C1803.3 1081 1861.7 1081 1890.8 1081L1920 1081L1920 993L1890.8 991.2C1861.7 989.3 1803.3 985.7 1745.2 989.2C1687 992.7 1629 1003.3 1570.8 1008.7C1512.7 1014 1454.3 1014 1396.2 1005C1338 996 1280 978 1221.8 969C1163.7 960 1105.3 960 1047.2 967.2C989 974.3 931 988.7 872.8 983.3C814.7 978 756.3 953 698.2 949.5C640 946 582 964 523.8 976.5C465.7 989 407.3 996 349.2 997.8C291 999.7 233 996.3 174.8 983.8C116.7 971.3 58.3 949.7 29.2 938.8L0 928Z" fill="#222323"/>
</svg>