<svg xmlns="http://www.w3.org/2000/svg" xmlns:xlink="http://www.w3.org/1999/xlink" id="visual" viewBox="0 0 1920 1080" width="1920" height="1080" version="1.1"><rect x="0" y="0" width="1920" height="1080" fill="#222323"/><path d="M0 837L26.7 844.8C53.3 852.7 106.7 868.3 160 864.2C213.3 860 266.7 836 320 824.7C373.3 813.3 426.7 814.7 480 821.8C533.3 829 586.7 842 640 852.3C693.3 862.7 746.7 870.3 800 868.2C853.3 866 906.7 854 960 845.8C1013.3 837.7 1066.7 833.3 1120 827.7C1173.3 822 1226.7 815 1280 825.2C1333.3 835.3 1386.7 862.7 1440 880.8C1493.3 899 1546.7 908 1600 909.8C1653.3 911.7 1706.7 906.3 1760 903.7C1813.3 901 1866.7 901 1893.3 901L1920 901L1920 1081L1893.3 1081C1866.7 1081 1813.3 1081 1760 1081C1706.7 1081 1653.3 1081 1600 1081C1546.7 1081 1493.3 1081 1440 1081C1386.7 1081 1333.3 1081 1280 1081C1226.7 1081 1173.3 1081 1120 1081C1066.7 1081 1013.3 1081 960 1081C906.7 1081 853.3 1081 800 1081C746.7 1081 693.3 1081 640 1081C586.7 1081 533.3 1081 480 1081C426.7 1081 373.3 1081 320 1081C266.7 1081 213.3 1081 160 1081C106.7 1081 53.3 1081 26.7 1081L0 1081Z" fill="#007fff"/><path d="M0 944L26.7 935.3C53.3 926.7 106.7 909.3 160 898.5C213.3 887.7 266.7 883.3 320 881.2C373.3 879 426.7 879 480 878.3C533.3 877.7 586.7 876.3 640 883.8C693.3 891.3 746.7 907.7 800 907.3C853.3 907 906.7 890 960 886.7C1013.3 883.3 1066.7 893.7 1120 896.8C1173.3 900 1226.7 896 1280 894.2C1333.3 892.3 1386.7 892.7 1440 902.7C1493.3 912.7 1546.7 932.3 1600 937.5C1653.3 942.7 1706.7 933.3 1760 930.8C1813.3 928.3 1866.7 932.7 1893.3 934.8L1920 937L1920 1081L1893.3 1081C1866.7 1081 1813.3 1081 1760 1081C1706.7 1081 1653.3 1081 1600 1081C1546.7 1081 1493.3 1081 1440 1081C1386.7 1081 1333.3 1081 1280 1081C1226.7 1081 1173.3 1081 1120 1081C1066.7 1081 1013.3 1081 960 1081C906.7 1081 853.3 1081 800 1081C746.7 1081 693.3 1081 640 1081C586.7 1081 533.3 1081 480 1081C426.7 1081 373.3 1081 320 1081C266.7 1081 213.3 1081 160 1081C106.7 1081 53.3 1081 26.7 1081L0 1081Z" fill="#0098ff"/><path d="M0 874L26.7 889.7C53.3 905.3 106.7 936.7 160 950.2C213.3 963.7 266.7 959.3 320 951.7C373.3 944 426.7 933 480 920C533.3 907 586.7 892 640 898.8C693.3 905.7 746.7 934.3 800 933.5C853.3 932.7 906.7 902.3 960 892C1013.3 881.7 1066.7 891.3 1120 907.7C1173.3 924 1226.7 947 1280 958.5C1333.3 970 1386.7 970 1440 966C1493.3 962 1546.7 954 1600 939.8C1653.3 925.7 1706.7 905.3 1760 905.8C1813.3 906.3 1866.7 927.7 1893.3 938.3L1920 949L1920 1081L1893.3 1081C1866.7 1081 1813.3 1081 1760 1081C1706.7 1081 1653.3 1081 1600 1081C1546.7 1081 1493.3 1081 1440 1081C1386.7 1081 1333.3 1081 1280 1081C1226.7 1081 1173.3 1081 1120 1081C1066.7 1081 1013.3 1081 960 1081C906.7 1081 853.3 1081 800 1081C746.7 1081 693.3 1081 640 1081C586.7 1081 533.3 1081 480 1081C426.7 1081 373.3 1081 320 1081C266.7 1081 213.3 1081 160 1081C106.7 1081 53.3 1081 26.7 1081L0 1081Z" fill="#00adff"/><path d="M0 973L26.7 967C53.3 961 106.7 949 160 949.7C213.3 950.3 266.7 963.7 320 967.2C373.3 970.7 426.7 964.3 480 956.5C533.3 948.7 586.7 939.3 640 934.7C693.3 930 746.7 930 800 927.7C853.3 925.3 906.7 920.7 960 915.5C1013.3 910.3 1066.7 904.7 1120 908.5C1173.3 912.3 1226.7 925.7 1280 940.3C1333.3 955 1386.7 971 1440 969.5C1493.3 968 1546.7 949 1600 937C1653.3 925 1706.7 920 1760 919.8C1813.3 919.7 1866.7 924.3 1893.3 926.7L1920 929L1920 1081L1893.3 1081C1866.7 1081 1813.3 1081 1760 1081C1706.7 1081 1653.3 1081 1600 1081C1546.7 1081 1493.3 1081 1440 1081C1386.7 1081 1333.3 1081 1280 1081C1226.7 1081 1173.3 1081 1120 1081C1066.7 1081 1013.3 1081 960 1081C906.7 1081 853.3 1081 800 1081C746.7 1081 693.3 1081 640 1081C586.7 1081 533.3 1081 480 1081C426.7 1081 373.3 1081 320 1081C266.7 1081 213.3 1081 160 1081C106.7 1081 53.3 1081 26.7 1081L0 1081Z" fill="#2fc1ff"/><path d="M0 991L26.7 986C53.3 981 106.7 971 160 970.3C213.3 969.7 266.7 978.3 320 974C373.3 969.7 426.7 952.3 480 943C533.3 933.7 586.7 932.3 640 934.3C693.3 936.3 746.7 941.7 800 946.7C853.3 951.7 906.7 956.3 960 956.5C1013.3 956.7 1066.7 952.3 1120 956C1173.3 959.7 1226.7 971.3 1280 968.2C1333.3 965 1386.7 947 1440 944.5C1493.3 942 1546.7 955 1600 959.8C1653.3 964.7 1706.7 961.3 1760 957C1813.3 952.7 1866.7 947.3 1893.3 944.7L1920 942L1920 1081L1893.3 1081C1866.7 1081 1813.3 1081 1760 1081C1706.7 1081 1653.3 1081 1600 1081C1546.7 1081 1493.3 1081 1440 1081C1386.7 1081 1333.3 1081 1280 1081C1226.7 1081 1173.3 1081 1120 1081C1066.7 1081 1013.3 1081 960 1081C906.7 1081 853.3 1081 800 1081C746.7 1081 693.3 1081 640 1081C586.7 1081 533.3 1081 480 1081C426.7 1081 373.3 1081 320 1081C266.7 1081 213.3 1081 160 1081C106.7 1081 53.3 1081 26.7 1081L0 1081Z" fill="#69d3fb"/><path d="M0 1012L26.7 1008C53.3 1004 106.7 996 160 997.5C213.3 999 266.7 1010 320 1008.3C373.3 1006.7 426.7 992.3 480 985.2C533.3 978 586.7 978 640 980.7C693.3 983.3 746.7 988.7 800 986.3C853.3 984 906.7 974 960 973.8C1013.3 973.7 1066.7 983.3 1120 985.7C1173.3 988 1226.7 983 1280 982.3C1333.3 981.7 1386.7 985.3 1440 982.5C1493.3 979.7 1546.7 970.3 1600 971.5C1653.3 972.7 1706.7 984.3 1760 984.2C1813.3 984 1866.7 972 1893.3 966L1920 960L1920 1081L1893.3 1081C1866.7 1081 1813.3 1081 1760 1081C1706.7 1081 1653.3 1081 1600 1081C1546.7 1081 1493.3 1081 1440 1081C1386.7 1081 1333.3 1081 1280 1081C1226.7 1081 1173.3 1081 1120 1081C1066.7 1081 1013.3 1081 960 1081C906.7 1081 853.3 1081 800 1081C746.7 1081 693.3 1081 640 1081C586.7 1081 533.3 1081 480 1081C426.7 1081 373.3 1081 320 1081C266.7 1081 213.3 1081 160 1081C106.7 1081 53.3 1081 26.7 1081L0 1081Z" fill="#99e3f7"/><path d="M0 1025L26.7 1021.7C53.3 1018.3 106.7 1011.7 160 1013.8C213.3 1016 266.7 1027 320 1026.3C373.3 1025.7 426.7 1013.3 480 1010.7C533.3 1008 586.7 1015 640 1018.8C693.3 1022.7 746.7 1023.3 800 1027C853.3 1030.7 906.7 1037.3 960 1035.3C1013.3 1033.3 1066.7 1022.7 1120 1013.7C1173.3 1004.7 1226.7 997.3 1280 998.8C1333.3 1000.3 1386.7 1010.7 1440 1014.5C1493.3 1018.3 1546.7 1015.7 1600 1010.7C1653.3 1005.7 1706.7 998.3 1760 995.8C1813.3 993.3 1866.7 995.7 1893.3 996.8L1920 998L1920 1081L1893.3 1081C1866.7 1081 1813.3 1081 1760 1081C1706.7 1081 1653.3 1081 1600 1081C1546.7 1081 1493.3 1081 1440 1081C1386.7 1081 1333.3 1081 1280 1081C1226.7 1081 1173.3 1081 1120 1081C1066.7 1081 1013.3 1081 960 1081C906.7 1081 853.3 1081 800 1081C746.7 1081 693.3 1081 640 1081C586.7 1081 533.3 1081 480 1081C426.7 1081 373.3 1081 320 1081C266.7 1081 213.3 1081 160 1081C106.7 1081 53.3 1081 26.7 1081L0 1081Z" fill="#c5f2f8"/><path d="M0 1056L26.7 1055C53.3 1054 106.7 1052 160 1048.2C213.3 1044.3 266.7 1038.7 320 1040.3C373.3 1042 426.7 1051 480 1051.2C533.3 1051.3 586.7 1042.7 640 1036.8C693.3 1031 746.7 1028 800 1028.8C853.3 1029.7 906.7 1034.3 960 1038.2C1013.3 1042 1066.7 1045 1120 1046.3C1173.3 1047.7 1226.7 1047.3 1280 1046.3C1333.3 1045.3 1386.7 1043.7 1440 1041.2C1493.3 1038.7 1546.7 1035.3 1600 1033C1653.3 1030.7 1706.7 1029.3 1760 1034C1813.3 1038.7 1866.7 1049.3 1893.3 1054.7L1920 1060L1920 1081L1893.3 1081C1866.7 1081 1813.3 1081 1760 1081C1706.7 1081 1653.3 1081 1600 1081C1546.7 1081 1493.3 1081 1440 1081C1386.7 1081 1333.3 1081 1280 1081C1226.7 1081 1173.3 1081 1120 1081C1066.7 1081 1013.3 1081 960 1081C906.7 1081 853.3 1081 800 1081C746.7 1081 693.3 1081 640 1081C586.7 1081 533.3 1081 480 1081C426.7 1081 373.3 1081 320 1081C266.7 1081 213.3 1081 160 1081C106.7 1081 53.3 1081 26.7 1081L0 1081Z" fill="#f0ffff"/></svg>